<svg width="33" height="33" viewBox="0 0 33 33" fill="none" xmlns="http://www.w3.org/2000/svg">
<path d="M28.875 6.875C28.875 9.15317 23.3345 11 16.5 11C9.66548 11 4.125 9.15317 4.125 6.875M28.875 6.875C28.875 4.59683 23.3345 2.75 16.5 2.75C9.66548 2.75 4.125 4.59683 4.125 6.875M28.875 6.875V26.125C28.875 28.4075 23.375 30.25 16.5 30.25C9.625 30.25 4.125 28.4075 4.125 26.125V6.875M28.875 16.5C28.875 18.7825 23.375 20.625 16.5 20.625C9.625 20.625 4.125 18.7825 4.125 16.5" stroke="#D0D7E1" stroke-width="4" stroke-linecap="round" stroke-linejoin="round"/>
</svg>
