<svg width="31" height="31" viewBox="0 0 31 31" fill="none" xmlns="http://www.w3.org/2000/svg">
<g clip-path="url(#clip0_8_103)">
<path d="M10.3333 21.9583L15.5 27.125M15.5 27.125L20.6667 21.9583M15.5 27.125V15.5M26.97 23.3663C28.093 22.5766 28.9351 21.4496 29.3742 20.1489C29.8132 18.8482 29.8264 17.4414 29.4118 16.1327C28.9971 14.824 28.1763 13.6814 27.0683 12.8709C25.9603 12.0603 24.6228 11.6239 23.25 11.625H21.6225C21.234 10.111 20.5071 8.70486 19.4966 7.51244C18.486 6.32001 17.2181 5.37238 15.7883 4.74087C14.3585 4.10937 12.8041 3.81045 11.2421 3.86663C9.68002 3.9228 8.15108 4.3326 6.77034 5.06518C5.3896 5.79775 4.19305 6.83401 3.27075 8.09595C2.34845 9.35788 1.72445 10.8126 1.44572 12.3506C1.16699 13.8886 1.24079 15.4698 1.66158 16.9751C2.08236 18.4805 2.83916 19.8707 3.875 21.0413" stroke="#B22B8C" stroke-width="4" stroke-linecap="round" stroke-linejoin="round"/>
</g>
<defs>
<clipPath id="clip0_8_103">
<rect width="31" height="31" fill="white"/>
</clipPath>
</defs>
</svg>
