<svg width="49" height="49" viewBox="0 0 49 49" fill="none" xmlns="http://www.w3.org/2000/svg">
<path d="M0.5 24.405C0.5 11.2323 11.3273 0.553772 24.5 0.553772C37.6727 0.553772 48.5 11.2323 48.5 24.405C48.5 37.5777 37.6727 48.2563 24.5 48.2563C11.3273 48.2563 0.5 37.5777 0.5 24.405Z" fill="#B22B8C"/>
<path d="M24.5 32.3554L32.5 24.405M32.5 24.405L24.5 16.4546M32.5 24.405H16.5M44.5 24.405C44.5 35.3823 35.5457 44.2811 24.5 44.2811C13.4543 44.2811 4.5 35.3823 4.5 24.405C4.5 13.4278 13.4543 4.52899 24.5 4.52899C35.5457 4.52899 44.5 13.4278 44.5 24.405Z" stroke="white" stroke-width="4" stroke-linecap="round" stroke-linejoin="round"/>
</svg>
