<svg width="56" height="55" viewBox="0 0 56 55" fill="none" xmlns="http://www.w3.org/2000/svg">
<circle cx="28" cy="27.5" r="27.5" fill="#D9D9D9"/>
<path d="M38 40.25L30.125 32.375C29.5 32.875 28.7812 33.2708 27.9688 33.5625C27.1562 33.8542 26.2917 34 25.375 34C23.1042 34 21.1823 33.2135 19.6094 31.6406C18.0365 30.0677 17.25 28.1458 17.25 25.875C17.25 23.6042 18.0365 21.6823 19.6094 20.1094C21.1823 18.5365 23.1042 17.75 25.375 17.75C27.6458 17.75 29.5677 18.5365 31.1406 20.1094C32.7135 21.6823 33.5 23.6042 33.5 25.875C33.5 26.7917 33.3542 27.6562 33.0625 28.4688C32.7708 29.2812 32.375 30 31.875 30.625L39.75 38.5L38 40.25ZM25.375 31.5C26.9375 31.5 28.2656 30.9531 29.3594 29.8594C30.4531 28.7656 31 27.4375 31 25.875C31 24.3125 30.4531 22.9844 29.3594 21.8906C28.2656 20.7969 26.9375 20.25 25.375 20.25C23.8125 20.25 22.4844 20.7969 21.3906 21.8906C20.2969 22.9844 19.75 24.3125 19.75 25.875C19.75 27.4375 20.2969 28.7656 21.3906 29.8594C22.4844 30.9531 23.8125 31.5 25.375 31.5Z" fill="#1D1B20"/>
</svg>
