<svg width="55" height="55" viewBox="0 0 55 55" fill="none" xmlns="http://www.w3.org/2000/svg">
<rect width="55" height="55" rx="27.5" fill="#D9D9D9"/>
<path d="M19.4329 29.5763L29.3184 35.0487M29.3039 19.9513L19.4329 25.4237M37.3947 17.875C37.3947 20.1532 35.4507 22 33.0526 22C30.6545 22 28.7105 20.1532 28.7105 17.875C28.7105 15.5968 30.6545 13.75 33.0526 13.75C35.4507 13.75 37.3947 15.5968 37.3947 17.875ZM20.0263 27.5C20.0263 29.7782 18.0823 31.625 15.6842 31.625C13.2861 31.625 11.3421 29.7782 11.3421 27.5C11.3421 25.2218 13.2861 23.375 15.6842 23.375C18.0823 23.375 20.0263 25.2218 20.0263 27.5ZM37.3947 37.125C37.3947 39.4032 35.4507 41.25 33.0526 41.25C30.6545 41.25 28.7105 39.4032 28.7105 37.125C28.7105 34.8468 30.6545 33 33.0526 33C35.4507 33 37.3947 34.8468 37.3947 37.125Z" stroke="#1E1E1E" stroke-width="4" stroke-linecap="round" stroke-linejoin="round"/>
</svg>
