<svg width="46" height="46" viewBox="0 0 46 46" fill="none" xmlns="http://www.w3.org/2000/svg">
<path d="M0.5 23.1488C0.5 10.7748 10.5311 0.743774 22.905 0.743774C35.2789 0.743774 45.31 10.7748 45.31 23.1488C45.31 35.5227 35.2789 45.5538 22.905 45.5538C10.5311 45.5538 0.5 35.5227 0.5 23.1488Z" fill="#B22B8C"/>
<path d="M34.5227 31.0668V32.8958C34.5227 33.8659 34.146 34.7964 33.4757 35.4824C32.8053 36.1684 31.896 36.5538 30.948 36.5538H13.0747C12.1266 36.5538 11.2174 36.1684 10.547 35.4824C9.87662 34.7964 9.5 33.8659 9.5 32.8958V20.0929C9.5 19.1227 9.87662 18.1923 10.547 17.5063C11.2174 16.8203 12.1266 16.4349 13.0747 16.4349H30.948C31.896 16.4349 32.8053 16.8203 33.4757 17.5063C34.146 18.1923 34.5227 19.1227 34.5227 20.0929V21.9219" stroke="#D0D7E1" stroke-width="1.5" stroke-linecap="round" stroke-linejoin="round"/>
<path d="M30.9481 16.4349L28.173 10.7553C28.068 10.5403 27.9227 10.3487 27.7453 10.1912C27.568 10.0338 27.3621 9.91361 27.1393 9.83764C26.9166 9.76165 26.6814 9.73133 26.4471 9.7484C26.213 9.76545 25.9843 9.82958 25.7744 9.93709L13.0748 16.4349" stroke="#D0D7E1" stroke-width="1.5" stroke-linecap="round" stroke-linejoin="round"/>
<path d="M34.5226 31.0669C34.9966 31.0669 35.4513 30.8742 35.7865 30.5312C36.1217 30.1882 36.3099 29.7229 36.3099 29.2379V23.7509C36.3099 23.2659 36.1217 22.8006 35.7865 22.4576C35.4513 22.1146 34.9966 21.9219 34.5226 21.9219H30.0543C28.8692 21.9219 27.7326 22.4037 26.8946 23.2611C26.0567 24.1187 25.5859 25.2817 25.5859 26.4944C25.5859 27.7072 26.0567 28.8701 26.8946 29.7277C27.7326 30.5851 28.8692 31.0669 30.0543 31.0669H34.5226Z" stroke="#D0D7E1" stroke-width="1.5" stroke-linecap="round" stroke-linejoin="round"/>
<path d="M30.0543 26.9516C29.8075 26.9516 29.6074 26.7469 29.6074 26.4944C29.6074 26.2419 29.8075 26.0371 30.0543 26.0371" stroke="#D0D7E1" stroke-width="1.5"/>
<path d="M30.0544 26.9516C30.3012 26.9516 30.5013 26.7469 30.5013 26.4944C30.5013 26.2419 30.3012 26.0371 30.0544 26.0371" stroke="#D0D7E1" stroke-width="1.5"/>
</svg>
