<svg width="137" height="55" viewBox="0 0 137 55" fill="none" xmlns="http://www.w3.org/2000/svg">
<path d="M5.46429 13.6786H8.19643V16.4107H5.46429V13.6786ZM2.73214 13.6786H5.46429V16.4107H2.73214V13.6786ZM2.73214 16.4107H5.46429V19.1429H2.73214V16.4107ZM5.46429 16.4107H8.19643V19.1429H5.46429V16.4107ZM8.19643 16.4107H10.9286V19.1429H8.19643V16.4107ZM8.19643 13.6786H10.9286V16.4107H8.19643V13.6786ZM10.9286 13.6786H13.6607V16.4107H10.9286V13.6786ZM13.6607 13.6786H16.3929V16.4107H13.6607V13.6786ZM13.6607 16.4107H16.3929V19.1429H13.6607V16.4107ZM10.9286 16.4107H13.6607V19.1429H10.9286V16.4107ZM10.9286 19.1429H13.6607V21.875H10.9286V19.1429ZM13.6607 19.1429H16.3929V21.875H13.6607V19.1429ZM16.3929 16.4107H19.125V19.1429H16.3929V16.4107ZM16.3929 19.1429H19.125V21.875H16.3929V19.1429ZM16.3929 21.875H19.125V24.6071H16.3929V21.875ZM16.3929 24.6071H19.125V27.3393H16.3929V24.6071ZM16.3929 27.3393H19.125V30.0714H16.3929V27.3393ZM16.3929 30.0714H19.125V32.8036H16.3929V30.0714ZM16.3929 32.8036H19.125V35.5357H16.3929V32.8036ZM16.3929 35.5357H19.125V38.2679H16.3929V35.5357ZM13.6607 35.5357H16.3929V38.2679H13.6607V35.5357ZM13.6607 32.8036H16.3929V35.5357H13.6607V32.8036ZM13.6607 30.0714H16.3929V32.8036H13.6607V30.0714ZM13.6607 27.3393H16.3929V30.0714H13.6607V27.3393ZM13.6607 24.6071H16.3929V27.3393H13.6607V24.6071ZM13.6607 21.875H16.3929V24.6071H13.6607V21.875ZM10.9286 32.8036H13.6607V35.5357H10.9286V32.8036ZM10.9286 35.5357H13.6607V38.2679H10.9286V35.5357ZM13.6607 38.2679H16.3929V41H13.6607V38.2679ZM10.9286 38.2679H13.6607V41H10.9286V38.2679ZM8.19643 38.2679H10.9286V41H8.19643V38.2679ZM8.19643 35.5357H10.9286V38.2679H8.19643V35.5357ZM5.46429 38.2679H8.19643V41H5.46429V38.2679ZM2.73214 38.2679H5.46429V41H2.73214V38.2679ZM2.73214 35.5357H5.46429V38.2679H2.73214V35.5357ZM5.46429 35.5357H8.19643V38.2679H5.46429V35.5357ZM2.73214 32.8036H5.46429V35.5357H2.73214V32.8036ZM0 35.5357H2.73214V38.2679H0V35.5357ZM0 32.8036H2.73214V35.5357H0V32.8036ZM0 30.0714H2.73214V32.8036H0V30.0714ZM0 27.3393H2.73214V30.0714H0V27.3393ZM0 24.6071H2.73214V27.3393H0V24.6071ZM0 21.875H2.73214V24.6071H0V21.875ZM0 19.1429H2.73214V21.875H0V19.1429ZM2.73214 19.1429H5.46429V21.875H2.73214V19.1429ZM0 16.4107H2.73214V19.1429H0V16.4107ZM2.73214 21.875H5.46429V24.6071H2.73214V21.875ZM2.73214 24.6071H5.46429V27.3393H2.73214V24.6071ZM2.73214 27.3393H5.46429V30.0714H2.73214V27.3393ZM2.73214 30.0714H5.46429V32.8036H2.73214V30.0714ZM0 38.2679H2.73214V41H0V38.2679ZM0 13.6786H2.73214V16.4107H0V13.6786ZM27.3285 19.1429H30.0607V21.875H27.3285V19.1429ZM24.5964 19.1429H27.3285V21.875H24.5964V19.1429ZM24.5964 21.875H27.3285V24.6071H24.5964V21.875ZM27.3285 21.875H30.0607V24.6071H27.3285V21.875ZM30.0607 19.1429H32.7928V21.875H30.0607V19.1429ZM32.7928 19.1429H35.525V21.875H32.7928V19.1429ZM35.525 19.1429H38.2571V21.875H35.525V19.1429ZM35.525 21.875H38.2571V24.6071H35.525V21.875ZM32.7928 21.875H35.525V24.6071H32.7928V21.875ZM38.2571 21.875H40.9893V24.6071H38.2571V21.875ZM38.2571 24.6071H40.9893V27.3393H38.2571V24.6071ZM38.2571 35.5357H40.9893V38.2679H38.2571V35.5357ZM35.525 35.5357H38.2571V38.2679H35.525V35.5357ZM35.525 24.6071H38.2571V27.3393H35.525V24.6071ZM32.7928 35.5357H35.525V38.2679H32.7928V35.5357ZM35.525 38.2679H38.2571V41H35.525V38.2679ZM32.7928 38.2679H35.525V41H32.7928V38.2679ZM30.0607 38.2679H32.7928V41H30.0607V38.2679ZM27.3285 38.2679H30.0607V41H27.3285V38.2679ZM24.5964 38.2679H27.3285V41H24.5964V38.2679ZM24.5964 35.5357H27.3285V38.2679H24.5964V35.5357ZM27.3285 35.5357H30.0607V38.2679H27.3285V35.5357ZM24.5964 32.8036H27.3285V35.5357H24.5964V32.8036ZM21.8643 35.5357H24.5964V38.2679H21.8643V35.5357ZM21.8643 32.8036H24.5964V35.5357H21.8643V32.8036ZM21.8643 30.0714H24.5964V32.8036H21.8643V30.0714ZM21.8643 27.3393H24.5964V30.0714H21.8643V27.3393ZM21.8643 24.6071H24.5964V27.3393H21.8643V24.6071ZM21.8643 21.875H24.5964V24.6071H21.8643V21.875ZM24.5964 24.6071H27.3285V27.3393H24.5964V24.6071ZM24.5964 27.3393H27.3285V30.0714H24.5964V27.3393ZM24.5964 30.0714H27.3285V32.8036H24.5964V30.0714ZM30.0607 35.5357H32.7928V38.2679H30.0607V35.5357ZM30.0607 21.875H32.7928V24.6071H30.0607V21.875ZM35.525 27.3393H38.2571V30.0714H35.525V27.3393ZM38.2571 27.3393H40.9893V30.0714H38.2571V27.3393ZM27.3285 30.0714H30.0607V32.8036H27.3285V30.0714ZM30.0607 30.0714H32.7928V32.8036H30.0607V30.0714ZM32.7928 30.0714H35.525V32.8036H32.7928V30.0714ZM35.525 30.0714H38.2571V32.8036H35.525V30.0714ZM38.2571 30.0714H40.9893V32.8036H38.2571V30.0714ZM32.7928 27.3393H35.525V30.0714H32.7928V27.3393ZM30.0607 27.3393H32.7928V30.0714H30.0607V27.3393ZM27.3285 27.3393H30.0607V30.0714H27.3285V27.3393ZM43.7285 21.875H46.4607V24.6071H43.7285V21.875ZM46.4607 24.6071H49.1928V27.3393H46.4607V24.6071ZM43.7285 24.6071H46.4607V27.3393H43.7285V24.6071ZM43.7285 27.3393H46.4607V30.0714H43.7285V27.3393ZM46.4607 27.3393H49.1928V30.0714H46.4607V27.3393ZM46.4607 30.0714H49.1928V32.8036H46.4607V30.0714ZM49.1928 30.0714H51.9249V32.8036H49.1928V30.0714ZM51.9249 30.0714H54.6571V32.8036H51.9249V30.0714ZM54.6571 27.3393H57.3892V30.0714H54.6571V27.3393ZM51.9249 27.3393H54.6571V30.0714H51.9249V27.3393ZM49.1928 27.3393H51.9249V30.0714H49.1928V27.3393ZM54.6571 30.0714H57.3892V32.8036H54.6571V30.0714ZM57.3892 30.0714H60.1214V32.8036H57.3892V30.0714ZM57.3892 32.8036H60.1214V35.5357H57.3892V32.8036ZM54.6571 32.8036H57.3892V35.5357H54.6571V32.8036ZM54.6571 35.5357H57.3892V38.2679H54.6571V35.5357ZM57.3892 35.5357H60.1214V38.2679H57.3892V35.5357ZM54.6571 38.2679H57.3892V41H54.6571V38.2679ZM51.9249 35.5357H54.6571V38.2679H51.9249V35.5357ZM49.1928 35.5357H51.9249V38.2679H49.1928V35.5357ZM46.4607 35.5357H49.1928V38.2679H46.4607V35.5357ZM43.7285 35.5357H46.4607V38.2679H43.7285V35.5357ZM46.4607 38.2679H49.1928V41H46.4607V38.2679ZM49.1928 38.2679H51.9249V41H49.1928V38.2679ZM51.9249 38.2679H54.6571V41H51.9249V38.2679ZM57.3892 21.875H60.1214V24.6071H57.3892V21.875ZM54.6571 21.875H57.3892V24.6071H54.6571V21.875ZM54.6571 19.1429H57.3892V21.875H54.6571V19.1429ZM51.9249 19.1429H54.6571V21.875H51.9249V19.1429ZM49.1928 19.1429H51.9249V21.875H49.1928V19.1429ZM46.4607 19.1429H49.1928V21.875H46.4607V19.1429ZM46.4607 21.875H49.1928V24.6071H46.4607V21.875ZM49.1928 21.875H51.9249V24.6071H49.1928V21.875ZM51.9249 21.875H54.6571V24.6071H51.9249V21.875ZM62.8535 13.6786H68.3178V19.1429H62.8535V13.6786ZM62.8535 21.875H68.3178V41H62.8535V21.875ZM87.4641 19.1429H90.1963V21.875H87.4641V19.1429ZM84.732 19.1429H87.4641V21.875H84.732V19.1429ZM81.9999 19.1429H84.732V21.875H81.9999V19.1429ZM79.2677 19.1429H81.9999V21.875H79.2677V19.1429ZM76.5356 19.1429H79.2677V21.875H76.5356V19.1429ZM76.5356 21.875H79.2677V24.6071H76.5356V21.875ZM79.2677 21.875H81.9999V24.6071H79.2677V21.875ZM81.9999 21.875H84.732V24.6071H81.9999V21.875ZM84.732 21.875H87.4641V24.6071H84.732V21.875ZM87.4641 21.875H90.1963V24.6071H87.4641V21.875ZM73.8034 19.1429H76.5356V21.875H73.8034V19.1429ZM73.8034 21.875H76.5356V24.6071H73.8034V21.875ZM73.8034 24.6071H76.5356V27.3393H73.8034V24.6071ZM71.0713 24.6071H73.8034V27.3393H71.0713V24.6071ZM71.0713 21.875H73.8034V24.6071H71.0713V21.875ZM71.0713 27.3393H73.8034V30.0714H71.0713V27.3393ZM71.0713 30.0714H73.8034V32.8036H71.0713V30.0714ZM73.8034 32.8036H76.5356V35.5357H73.8034V32.8036ZM73.8034 30.0714H76.5356V32.8036H73.8034V30.0714ZM73.8034 27.3393H76.5356V30.0714H73.8034V27.3393ZM71.0713 32.8036H73.8034V35.5357H71.0713V32.8036ZM73.8034 35.5357H76.5356V38.2679H73.8034V35.5357ZM76.5356 35.5357H79.2677V38.2679H76.5356V35.5357ZM79.2677 35.5357H81.9999V38.2679H79.2677V35.5357ZM84.732 35.5357H87.4641V38.2679H84.732V35.5357ZM87.4641 35.5357H90.1963V38.2679H87.4641V35.5357ZM87.4641 32.8036H90.1963V35.5357H87.4641V32.8036ZM84.732 32.8036H87.4641V35.5357H84.732V32.8036ZM81.9999 32.8036H84.732V35.5357H81.9999V32.8036ZM79.2677 32.8036H81.9999V35.5357H79.2677V32.8036ZM76.5356 32.8036H79.2677V35.5357H76.5356V32.8036ZM84.732 30.0714H87.4641V32.8036H84.732V30.0714ZM84.732 27.3393H87.4641V30.0714H84.732V27.3393ZM84.732 24.6071H87.4641V27.3393H84.732V24.6071ZM87.4641 24.6071H90.1963V27.3393H87.4641V24.6071ZM87.4641 27.3393H90.1963V30.0714H87.4641V27.3393ZM87.4641 30.0714H90.1963V32.8036H87.4641V30.0714ZM84.732 38.2679H87.4641V41H84.732V38.2679ZM84.732 41H87.4641V43.7321H84.732V41ZM87.4641 41H90.1963V43.7321H87.4641V41ZM87.4641 38.2679H90.1963V41H87.4641V38.2679ZM71.0713 41H73.8034V43.7321H71.0713V41ZM73.8034 41H76.5356V43.7321H73.8034V41ZM73.8034 43.7321H76.5356V46.4643H73.8034V43.7321ZM76.5356 43.7321H79.2677V46.4643H76.5356V43.7321ZM76.5356 41H79.2677V43.7321H76.5356V41ZM79.2677 41H81.9999V43.7321H79.2677V41ZM81.9999 41H84.732V43.7321H81.9999V41ZM84.732 43.7321H87.4641V46.4643H84.732V43.7321ZM81.9999 43.7321H84.732V46.4643H81.9999V43.7321ZM79.2677 43.7321H81.9999V46.4643H79.2677V43.7321ZM92.9355 21.875H95.6677V24.6071H92.9355V21.875ZM92.9355 19.1429H95.6677V21.875H92.9355V19.1429ZM95.6677 19.1429H98.3998V21.875H95.6677V19.1429ZM95.6677 21.875H98.3998V24.6071H95.6677V21.875ZM95.6677 24.6071H98.3998V27.3393H95.6677V24.6071ZM95.6677 27.3393H98.3998V30.0714H95.6677V27.3393ZM95.6677 30.0714H98.3998V32.8036H95.6677V30.0714ZM92.9355 30.0714H95.6677V32.8036H92.9355V30.0714ZM92.9355 27.3393H95.6677V30.0714H92.9355V27.3393ZM92.9355 24.6071H95.6677V27.3393H92.9355V24.6071ZM92.9355 32.8036H95.6677V35.5357H92.9355V32.8036ZM95.6677 32.8036H98.3998V35.5357H95.6677V32.8036ZM95.6677 35.5357H98.3998V38.2679H95.6677V35.5357ZM95.6677 38.2679H98.3998V41H95.6677V38.2679ZM92.9355 38.2679H95.6677V41H92.9355V38.2679ZM92.9355 35.5357H95.6677V38.2679H92.9355V35.5357ZM106.596 38.2679H109.328V41H106.596V38.2679ZM109.328 38.2679H112.061V41H109.328V38.2679ZM109.328 35.5357H112.061V38.2679H109.328V35.5357ZM109.328 32.8036H112.061V35.5357H109.328V32.8036ZM109.328 30.0714H112.061V32.8036H109.328V30.0714ZM109.328 27.3393H112.061V30.0714H109.328V27.3393ZM109.328 24.6071H112.061V27.3393H109.328V24.6071ZM109.328 21.875H112.061V24.6071H109.328V21.875ZM106.596 27.3393H109.328V30.0714H106.596V27.3393ZM106.596 30.0714H109.328V32.8036H106.596V30.0714ZM106.596 32.8036H109.328V35.5357H106.596V32.8036ZM106.596 35.5357H109.328V38.2679H106.596V35.5357ZM106.596 24.6071H109.328V27.3393H106.596V24.6071ZM98.3998 21.875H101.132V24.6071H98.3998V21.875ZM101.132 21.875H103.864V24.6071H101.132V21.875ZM103.864 21.875H106.596V24.6071H103.864V21.875ZM103.864 19.1429H106.596V21.875H103.864V19.1429ZM106.596 19.1429H109.328V21.875H106.596V19.1429ZM106.596 21.875H109.328V24.6071H106.596V21.875ZM101.132 19.1429H103.864V21.875H101.132V19.1429ZM117.532 13.6786H120.264V16.4107H117.532V13.6786ZM117.532 16.4107H120.264V19.1429H117.532V16.4107ZM117.532 19.1429H120.264V21.875H117.532V19.1429ZM120.264 19.1429H122.996V21.875H120.264V19.1429ZM120.264 21.875H122.996V24.6071H120.264V21.875ZM122.996 21.875H125.728V24.6071H122.996V21.875ZM125.728 21.875H128.461V24.6071H125.728V21.875ZM125.728 19.1429H128.461V21.875H125.728V19.1429ZM128.461 19.1429H131.193V21.875H128.461V19.1429ZM131.193 19.1429H133.925V21.875H131.193V19.1429ZM131.193 16.4107H133.925V19.1429H131.193V16.4107ZM131.193 13.6786H133.925V16.4107H131.193V13.6786ZM128.461 13.6786H131.193V16.4107H128.461V13.6786ZM128.461 16.4107H131.193V19.1429H128.461V16.4107ZM128.461 21.875H131.193V24.6071H128.461V21.875ZM117.532 21.875H120.264V24.6071H117.532V21.875ZM114.8 19.1429H117.532V21.875H114.8V19.1429ZM114.8 16.4107H117.532V19.1429H114.8V16.4107ZM114.8 13.6786H117.532V16.4107H114.8V13.6786ZM120.264 24.6071H122.996V27.3393H120.264V24.6071ZM122.996 24.6071H125.728V27.3393H122.996V24.6071ZM125.728 24.6071H128.461V27.3393H125.728V24.6071ZM125.728 27.3393H128.461V30.0714H125.728V27.3393ZM128.461 27.3393H131.193V30.0714H128.461V27.3393ZM128.461 30.0714H131.193V32.8036H128.461V30.0714ZM125.728 30.0714H128.461V32.8036H125.728V30.0714ZM131.193 38.2679H133.925V41H131.193V38.2679ZM131.193 35.5357H133.925V38.2679H131.193V35.5357ZM131.193 32.8036H133.925V35.5357H131.193V32.8036ZM131.193 30.0714H133.925V32.8036H131.193V30.0714ZM128.461 32.8036H131.193V35.5357H128.461V32.8036ZM128.461 35.5357H131.193V38.2679H128.461V35.5357ZM128.461 38.2679H131.193V41H128.461V38.2679ZM114.8 38.2679H117.532V41H114.8V38.2679ZM117.532 38.2679H120.264V41H117.532V38.2679ZM117.532 35.5357H120.264V38.2679H117.532V35.5357ZM117.532 32.8036H120.264V35.5357H117.532V32.8036ZM114.8 32.8036H117.532V35.5357H114.8V32.8036ZM114.8 30.0714H117.532V32.8036H114.8V30.0714ZM114.8 35.5357H117.532V38.2679H114.8V35.5357ZM117.532 30.0714H120.264V32.8036H117.532V30.0714ZM120.264 30.0714H122.996V32.8036H120.264V30.0714ZM120.264 27.3393H122.996V30.0714H120.264V27.3393ZM117.532 27.3393H120.264V30.0714H117.532V27.3393ZM122.996 27.3393H125.728V30.0714H122.996V27.3393Z" fill="url(#paint0_linear_55_19)"/>
<defs>
<linearGradient id="paint0_linear_55_19" x1="68.5" y1="0" x2="68.5" y2="55" gradientUnits="userSpaceOnUse">
<stop stop-color="#812BB2"/>
<stop offset="1" stop-color="#C4386D"/>
</linearGradient>
</defs>
</svg>
